<svg width="14" height="14" viewBox="0 0 14 14" fill="none" xmlns="http://www.w3.org/2000/svg">
<path d="M14 14H0V0H14V14Z" stroke="#E5E7EB"/>
<path d="M0.10665 1.50117C0.287119 1.11836 0.669932 0.875 1.09376 0.875H12.9063C13.3301 0.875 13.7129 1.11836 13.8934 1.50117C14.0738 1.88398 14.0192 2.33516 13.7512 2.66328L8.75001 8.77461V12.25C8.75001 12.5809 8.56407 12.8844 8.26603 13.032C7.96798 13.1797 7.61524 13.1496 7.35001 12.95L5.60001 11.6375C5.37853 11.4734 5.25001 11.2137 5.25001 10.9375V8.77461L0.246103 2.66055C-0.0191309 2.33516 -0.0765528 1.88125 0.10665 1.50117Z" fill="#10B981"/>
</svg>
