<svg width="14" height="14" viewBox="0 0 14 14" fill="none" xmlns="http://www.w3.org/2000/svg">
<g clip-path="url(#clip0_51_593)">
<path d="M12.8953 0.593652C12.2965 -0.0051758 11.3285 -0.0051758 10.7297 0.593652L9.90664 1.41396L12.5836 4.09092L13.4066 3.26787C14.0055 2.66904 14.0055 1.70107 13.4066 1.10225L12.8953 0.593652ZM4.71406 6.60928C4.54727 6.77607 4.41875 6.98115 4.34492 7.20811L3.53555 9.63623C3.45625 9.87139 3.51914 10.1312 3.69414 10.3089C3.86914 10.4866 4.12891 10.5468 4.3668 10.4675L6.79492 9.65811C7.01914 9.58428 7.22422 9.45576 7.39375 9.28897L11.9684 4.71162L9.28867 2.03193L4.71406 6.60928ZM2.625 1.75029C1.17578 1.75029 0 2.92607 0 4.37529V11.3753C0 12.8245 1.17578 14.0003 2.625 14.0003H9.625C11.0742 14.0003 12.25 12.8245 12.25 11.3753V8.75029C12.25 8.26631 11.859 7.87529 11.375 7.87529C10.891 7.87529 10.5 8.26631 10.5 8.75029V11.3753C10.5 11.8593 10.109 12.2503 9.625 12.2503H2.625C2.14102 12.2503 1.75 11.8593 1.75 11.3753V4.37529C1.75 3.89131 2.14102 3.50029 2.625 3.50029H5.25C5.73398 3.50029 6.125 3.10928 6.125 2.62529C6.125 2.14131 5.73398 1.75029 5.25 1.75029H2.625Z" fill="#10B981"/>
</g>
<defs>
<clipPath id="clip0_51_593">
<path d="M0 0H14V14H0V0Z" fill="white"/>
</clipPath>
</defs>
</svg>
