<svg width="23" height="30" viewBox="0 0 23 30" fill="none" xmlns="http://www.w3.org/2000/svg">
<g clip-path="url(#clip0_51_418)">
<path d="M18.6738 15.7441C18.6621 13.5938 19.6348 11.9707 21.6035 10.7754C20.502 9.19922 18.8379 8.33203 16.6406 8.16211C14.5605 7.99805 12.2871 9.375 11.4551 9.375C10.5762 9.375 8.56055 8.2207 6.97852 8.2207C3.70898 8.27344 0.234375 10.8281 0.234375 16.0254C0.234375 17.5605 0.515625 19.1465 1.07812 20.7832C1.82812 22.9336 4.53516 28.207 7.35938 28.1191C8.83594 28.084 9.87891 27.0703 11.8008 27.0703C13.6641 27.0703 14.6309 28.1191 16.2773 28.1191C19.125 28.0781 21.5742 23.2852 22.2891 21.1289C18.4688 19.3301 18.6738 15.8555 18.6738 15.7441ZM15.3574 6.12305C16.957 4.22461 16.8105 2.49609 16.7637 1.875C15.3516 1.95703 13.7168 2.83594 12.7852 3.91992C11.7598 5.08008 11.1562 6.51562 11.2852 8.13281C12.8145 8.25 14.209 7.46484 15.3574 6.12305Z" fill="#111827"/>
</g>
<defs>
<clipPath id="clip0_51_418">
<path d="M0 0H22.5V30H0V0Z" fill="white"/>
</clipPath>
</defs>
</svg>
