<svg width="16" height="14" viewBox="0 0 16 14" fill="none" xmlns="http://www.w3.org/2000/svg">
<g clip-path="url(#clip0_51_575)">
<path d="M11.1562 3.28125C11.1562 4.77422 9.15742 7.43477 8.27969 8.53125C8.06914 8.79375 7.67813 8.79375 7.47031 8.53125C6.59258 7.43477 4.59375 4.77422 4.59375 3.28125C4.59375 1.46836 6.06211 0 7.875 0C9.68789 0 11.1562 1.46836 11.1562 3.28125ZM11.375 5.47969C11.4707 5.29102 11.5582 5.10234 11.6375 4.91641C11.6512 4.88359 11.6648 4.84805 11.6785 4.81523L14.8504 3.54648C15.2824 3.37422 15.75 3.69141 15.75 4.15625V11.5609C15.75 11.8289 15.5859 12.0695 15.3371 12.1707L11.375 13.7539V5.47969ZM3.7625 3.78164C3.82813 4.16719 3.95937 4.55547 4.1125 4.91641C4.1918 5.10234 4.2793 5.29102 4.375 5.47969V12.3539L0.899609 13.7457C0.467578 13.918 0 13.6008 0 13.1359V5.73125C0 5.46328 0.164062 5.22266 0.412891 5.12148L3.76523 3.78164H3.7625ZM8.96328 9.07812C9.34336 8.60234 9.93945 7.82852 10.5 6.97266V13.7895L5.25 12.2883V6.97266C5.81055 7.82852 6.40664 8.60234 6.78672 9.07812C7.34727 9.77812 8.40273 9.77812 8.96328 9.07812ZM7.875 4.15625C8.16508 4.15625 8.44328 4.04102 8.6484 3.8359C8.85352 3.63078 8.96875 3.35258 8.96875 3.0625C8.96875 2.77242 8.85352 2.49422 8.6484 2.2891C8.44328 2.08398 8.16508 1.96875 7.875 1.96875C7.58492 1.96875 7.30672 2.08398 7.1016 2.2891C6.89648 2.49422 6.78125 2.77242 6.78125 3.0625C6.78125 3.35258 6.89648 3.63078 7.1016 3.8359C7.30672 4.04102 7.58492 4.15625 7.875 4.15625Z" fill="#10B981"/>
</g>
<defs>
<clipPath id="clip0_51_575">
<path d="M0 0H15.75V14H0V0Z" fill="white"/>
</clipPath>
</defs>
</svg>
