<svg width="20" height="20" viewBox="0 0 20 20" fill="none" xmlns="http://www.w3.org/2000/svg">
<path d="M20 20H0V0H20V20Z" stroke="#E5E7EB"/>
<path d="M5.82422 2.53125L5.41797 3.75H2.5C1.12109 3.75 0 4.87109 0 6.25V16.25C0 17.6289 1.12109 18.75 2.5 18.75H17.5C18.8789 18.75 20 17.6289 20 16.25V6.25C20 4.87109 18.8789 3.75 17.5 3.75H14.582L14.1758 2.53125C13.9219 1.76563 13.207 1.25 12.3984 1.25H7.60156C6.79297 1.25 6.07812 1.76563 5.82422 2.53125ZM10 7.5C10.9946 7.5 11.9484 7.89509 12.6517 8.59835C13.3549 9.30161 13.75 10.2554 13.75 11.25C13.75 12.2446 13.3549 13.1984 12.6517 13.9017C11.9484 14.6049 10.9946 15 10 15C9.00544 15 8.05161 14.6049 7.34835 13.9017C6.64509 13.1984 6.25 12.2446 6.25 11.25C6.25 10.2554 6.64509 9.30161 7.34835 8.59835C8.05161 7.89509 9.00544 7.5 10 7.5Z" fill="#10B981"/>
</svg>
