<svg width="27" height="36" viewBox="0 0 27 36" fill="none" xmlns="http://www.w3.org/2000/svg">
<g clip-path="url(#clip0_52_4)">
<path d="M22.4086 18.893C22.3945 16.3125 23.5617 14.3648 25.9242 12.9305C24.6023 11.0391 22.6055 9.99844 19.9688 9.79453C17.4727 9.59766 14.7445 11.25 13.7461 11.25C12.6914 11.25 10.2727 9.86484 8.37422 9.86484C4.45078 9.92813 0.28125 12.9938 0.28125 19.2305C0.28125 21.0727 0.61875 22.9758 1.29375 24.9398C2.19375 27.5203 5.44219 33.8484 8.83125 33.743C10.6031 33.7008 11.8547 32.4844 14.1609 32.4844C16.3969 32.4844 17.557 33.743 19.5328 33.743C22.95 33.6937 25.8891 27.9422 26.7469 25.3547C22.1625 23.1961 22.4086 19.0266 22.4086 18.893ZM18.4289 7.34766C20.3484 5.06953 20.1727 2.99531 20.1164 2.25C18.4219 2.34844 16.4602 3.40313 15.3422 4.70391C14.1117 6.09609 13.3875 7.81875 13.5422 9.75938C15.3773 9.9 17.0508 8.95781 18.4289 7.34766Z" fill="white"/>
</g>
<defs>
<clipPath id="clip0_52_4">
<path d="M0 0H27V36H0V0Z" fill="white"/>
</clipPath>
</defs>
</svg>
