<svg width="30" height="24" viewBox="0 0 30 24" fill="none" xmlns="http://www.w3.org/2000/svg">
<path d="M30 24H0V0H30V24Z" stroke="#E5E7EB"/>
<path d="M2.54061 9.51094C5.77499 6.40781 10.1625 4.5 15 4.5C19.8375 4.5 24.225 6.40781 27.4594 9.51094C28.0594 10.0828 29.0062 10.0641 29.5781 9.46875C30.15 8.87344 30.1312 7.92188 29.5359 7.35C25.7672 3.72656 20.6437 1.5 15 1.5C9.35624 1.5 4.2328 3.72656 0.459362 7.34531C-0.135951 7.92188 -0.154701 8.86875 0.417174 9.46875C0.989049 10.0688 1.94061 10.0875 2.53592 9.51094H2.54061ZM15 12C17.6625 12 20.0906 12.9891 21.9469 14.625C22.5703 15.1734 23.5172 15.1125 24.0656 14.4938C24.614 13.875 24.5531 12.9234 23.9344 12.375C21.5531 10.275 18.4219 9 15 9C11.5781 9 8.44686 10.275 6.0703 12.375C5.44686 12.9234 5.39061 13.8703 5.93905 14.4938C6.48749 15.1172 7.43436 15.1734 8.0578 14.625C9.90936 12.9891 12.3375 12 15.0047 12H15ZM18 19.5C18 18.7044 17.6839 17.9413 17.1213 17.3787C16.5587 16.8161 15.7956 16.5 15 16.5C14.2043 16.5 13.4413 16.8161 12.8787 17.3787C12.3161 17.9413 12 18.7044 12 19.5C12 20.2956 12.3161 21.0587 12.8787 21.6213C13.4413 22.1839 14.2043 22.5 15 22.5C15.7956 22.5 16.5587 22.1839 17.1213 21.6213C17.6839 21.0587 18 20.2956 18 19.5Z" fill="#10B981"/>
</svg>
