<svg width="23" height="18" viewBox="0 0 23 18" fill="none" xmlns="http://www.w3.org/2000/svg">
<g clip-path="url(#clip0_51_515)">
<path d="M2.8125 1.6875C2.8125 1.23995 2.99029 0.810725 3.30676 0.494257C3.62323 0.17779 4.05245 0 4.5 0C4.94756 0 5.37678 0.17779 5.69325 0.494257C6.00971 0.810725 6.1875 1.23995 6.1875 1.6875C6.1875 2.13505 6.00971 2.56428 5.69325 2.88074C5.37678 3.19721 4.94756 3.375 4.5 3.375C4.05245 3.375 3.62323 3.19721 3.30676 2.88074C2.99029 2.56428 2.8125 2.13505 2.8125 1.6875ZM4.21875 12.375V16.875C4.21875 17.4973 3.71602 18 3.09375 18C2.47149 18 1.96875 17.4973 1.96875 16.875V11.4328C1.68399 11.7563 1.22696 11.8969 0.79102 11.7633C0.196879 11.577 -0.13359 10.9477 0.0527384 10.3535L1.13907 6.86953C1.57852 5.45977 2.88282 4.5 4.35938 4.5H4.64063C6.11719 4.5 7.42149 5.45977 7.86094 6.86953L8.94727 10.3535C9.1336 10.9477 8.80313 11.577 8.20899 11.7633C7.77305 11.9004 7.31602 11.7563 7.03125 11.4328V16.875C7.03125 17.4973 6.52852 18 5.90625 18C5.28399 18 4.78125 17.4973 4.78125 16.875V12.375H4.21875ZM11.25 0C11.7176 0 12.0938 0.376172 12.0938 0.84375V17.1562C12.0938 17.6238 11.7176 18 11.25 18C10.7824 18 10.4063 17.6238 10.4063 17.1562V0.84375C10.4063 0.376172 10.7824 0 11.25 0ZM16.3125 1.6875C16.3125 1.23995 16.4903 0.810725 16.8068 0.494257C17.1232 0.17779 17.5525 0 18 0C18.4476 0 18.8768 0.17779 19.1932 0.494257C19.5097 0.810725 19.6875 1.23995 19.6875 1.6875C19.6875 2.13505 19.5097 2.56428 19.1932 2.88074C18.8768 3.19721 18.4476 3.375 18 3.375C17.5525 3.375 17.1232 3.19721 16.8068 2.88074C16.4903 2.56428 16.3125 2.13505 16.3125 1.6875ZM15.4688 16.875V13.5H14.843C14.4598 13.5 14.1891 13.1238 14.3086 12.7582L14.625 11.8125C14.5125 11.8125 14.4 11.7949 14.291 11.7598C13.6969 11.5734 13.3664 10.9441 13.5527 10.35L14.5969 7.00312C15.0609 5.51602 16.4391 4.5 18 4.5C19.5609 4.5 20.9391 5.51602 21.4031 7.00312L22.4473 10.35C22.6336 10.9441 22.3031 11.5734 21.709 11.7598C21.5965 11.7949 21.484 11.8125 21.375 11.8125L21.6914 12.7582C21.8145 13.1238 21.5402 13.5 21.157 13.5H20.5313V16.875C20.5313 17.4973 20.0285 18 19.4063 18C18.784 18 18.2813 17.4973 18.2813 16.875V13.5H17.7188V16.875C17.7188 17.4973 17.216 18 16.5938 18C15.9715 18 15.4688 17.4973 15.4688 16.875Z" fill="white"/>
</g>
<defs>
<clipPath id="clip0_51_515">
<path d="M0 0H22.5V18H0V0Z" fill="white"/>
</clipPath>
</defs>
</svg>
