<svg width="14" height="14" viewBox="0 0 14 14" fill="none" xmlns="http://www.w3.org/2000/svg">
<path d="M14 14H0V0H14V14Z" stroke="#E5E7EB"/>
<path d="M6.03203 3.31406L7.41289 2.625H12.25V5.25H9.11094C8.51211 4.83711 7.78477 4.59375 7 4.59375C6.21523 4.59375 5.49062 4.83711 4.88906 5.25H1.75V3.5H5.25C5.5207 3.5 5.78867 3.43711 6.03203 3.31406ZM0 3.5V11.375C0 12.3402 0.784766 13.125 1.75 13.125H12.25C13.2152 13.125 14 12.3402 14 11.375V2.625C14 1.65977 13.2152 0.875 12.25 0.875H7.41289C7.14219 0.875 6.87422 0.937891 6.63086 1.06094L5.25 1.75H4.375V1.3125C4.375 1.07187 4.17812 0.875 3.9375 0.875H2.1875C1.94687 0.875 1.75 1.07187 1.75 1.3125V1.75C0.784766 1.75 0 2.53477 0 3.5ZM4.59375 8.3125C4.59375 7.67432 4.84726 7.06228 5.29852 6.61102C5.74978 6.15976 6.36182 5.90625 7 5.90625C7.63818 5.90625 8.25022 6.15976 8.70148 6.61102C9.15274 7.06228 9.40625 7.67432 9.40625 8.3125C9.40625 8.95068 9.15274 9.56272 8.70148 10.014C8.25022 10.4652 7.63818 10.7188 7 10.7188C6.36182 10.7188 5.74978 10.4652 5.29852 10.014C4.84726 9.56272 4.59375 8.95068 4.59375 8.3125Z" fill="#10B981"/>
</svg>
