<svg width="14" height="14" viewBox="0 0 14 14" fill="none" xmlns="http://www.w3.org/2000/svg">
<g clip-path="url(#clip0_51_581)">
<path d="M14 2.625C14 3.99766 12.384 6.0457 11.6867 6.86328C11.5828 6.98359 11.4297 7.03008 11.2902 7H8.75C8.26602 7 7.875 7.39102 7.875 7.875C7.875 8.35898 8.26602 8.75 8.75 8.75H11.375C12.8242 8.75 14 9.92578 14 11.375C14 12.8242 12.8242 14 11.375 14H3.81719C4.05508 13.7293 4.34492 13.382 4.6375 12.9938C4.80977 12.7641 4.9875 12.5125 5.15703 12.25H11.375C11.859 12.25 12.25 11.859 12.25 11.375C12.25 10.891 11.859 10.5 11.375 10.5H8.75C7.30078 10.5 6.125 9.32422 6.125 7.875C6.125 6.42578 7.30078 5.25 8.75 5.25H9.83828C9.26406 4.38867 8.75 3.39883 8.75 2.625C8.75 1.17578 9.92578 0 11.375 0C12.8242 0 14 1.17578 14 2.625ZM3.20195 13.3738C3.09805 13.4914 3.00508 13.5953 2.92578 13.6828L2.87656 13.7375L2.87109 13.732C2.70703 13.8578 2.47187 13.8414 2.32422 13.6828C1.63516 12.9336 0 11.0059 0 9.625C0 8.17578 1.17578 7 2.625 7C4.07422 7 5.25 8.17578 5.25 9.625C5.25 10.4453 4.67305 11.457 4.06055 12.302C3.76797 12.7039 3.46719 13.0676 3.21836 13.3547L3.20195 13.3738ZM3.5 9.625C3.5 9.39294 3.40781 9.17038 3.24372 9.00628C3.07962 8.84219 2.85706 8.75 2.625 8.75C2.39294 8.75 2.17038 8.84219 2.00628 9.00628C1.84219 9.17038 1.75 9.39294 1.75 9.625C1.75 9.85706 1.84219 10.0796 2.00628 10.2437C2.17038 10.4078 2.39294 10.5 2.625 10.5C2.85706 10.5 3.07962 10.4078 3.24372 10.2437C3.40781 10.0796 3.5 9.85706 3.5 9.625ZM11.375 3.5C11.6071 3.5 11.8296 3.40781 11.9937 3.24372C12.1578 3.07962 12.25 2.85706 12.25 2.625C12.25 2.39294 12.1578 2.17038 11.9937 2.00628C11.8296 1.84219 11.6071 1.75 11.375 1.75C11.1429 1.75 10.9204 1.84219 10.7563 2.00628C10.5922 2.17038 10.5 2.39294 10.5 2.625C10.5 2.85706 10.5922 3.07962 10.7563 3.24372C10.9204 3.40781 11.1429 3.5 11.375 3.5Z" fill="#10B981"/>
</g>
<defs>
<clipPath id="clip0_51_581">
<path d="M0 0H14V14H0V0Z" fill="white"/>
</clipPath>
</defs>
</svg>
