<svg width="14" height="14" viewBox="0 0 14 14" fill="none" xmlns="http://www.w3.org/2000/svg">
<g clip-path="url(#clip0_51_590)">
<path d="M4.15901 1.04487C4.42971 1.28823 4.45159 1.70112 4.20823 1.97182L2.23948 4.15932C2.11917 4.2933 1.94963 4.3726 1.76917 4.37533C1.5887 4.37807 1.41643 4.30971 1.28791 4.18393L0.191431 3.09018C-0.0628662 2.83315 -0.0628662 2.41752 0.191431 2.16049C0.445728 1.90346 0.864087 1.90346 1.11838 2.16049L1.72268 2.76479L3.22932 1.09135C3.47268 0.820648 3.88557 0.798773 4.15627 1.04213L4.15901 1.04487ZM4.15901 5.41987C4.42971 5.66323 4.45159 6.07612 4.20823 6.34682L2.23948 8.53432C2.11917 8.6683 1.94963 8.7476 1.76917 8.75033C1.5887 8.75307 1.41643 8.68471 1.28791 8.55893L0.191431 7.46518C-0.0656006 7.20815 -0.0656006 6.79252 0.191431 6.53823C0.448462 6.28393 0.864087 6.28119 1.11838 6.53823L1.72268 7.14252L3.22932 5.46908C3.47268 5.19838 3.88557 5.17651 4.15627 5.41987H4.15901ZM6.12502 2.62534C6.12502 2.14135 6.51604 1.75034 7.00002 1.75034H13.125C13.609 1.75034 14 2.14135 14 2.62534C14 3.10932 13.609 3.50034 13.125 3.50034H7.00002C6.51604 3.50034 6.12502 3.10932 6.12502 2.62534ZM6.12502 7.00033C6.12502 6.51635 6.51604 6.12533 7.00002 6.12533H13.125C13.609 6.12533 14 6.51635 14 7.00033C14 7.48432 13.609 7.87533 13.125 7.87533H7.00002C6.51604 7.87533 6.12502 7.48432 6.12502 7.00033ZM4.37502 11.3753C4.37502 10.8914 4.76604 10.5003 5.25002 10.5003H13.125C13.609 10.5003 14 10.8914 14 11.3753C14 11.8593 13.609 12.2503 13.125 12.2503H5.25002C4.76604 12.2503 4.37502 11.8593 4.37502 11.3753ZM1.31252 10.0628C1.66062 10.0628 1.99446 10.2011 2.2406 10.4473C2.48674 10.6934 2.62502 11.0272 2.62502 11.3753C2.62502 11.7234 2.48674 12.0573 2.2406 12.3034C1.99446 12.5496 1.66062 12.6878 1.31252 12.6878C0.964428 12.6878 0.630588 12.5496 0.384447 12.3034C0.138305 12.0573 2.44062e-05 11.7234 2.44062e-05 11.3753C2.44062e-05 11.0272 0.138305 10.6934 0.384447 10.4473C0.630588 10.2011 0.964428 10.0628 1.31252 10.0628Z" fill="#10B981"/>
</g>
<defs>
<clipPath id="clip0_51_590">
<path d="M0 0H14V14H0V0Z" fill="white"/>
</clipPath>
</defs>
</svg>
