<svg width="24" height="24" viewBox="0 0 24 24" fill="none" xmlns="http://www.w3.org/2000/svg">
<g clip-path="url(#clip0_51_363)">
<path d="M7.33594 20.9859L6.74531 22.3688C5.86875 21.9234 5.0625 21.375 4.33125 20.7328L5.39531 19.6688C5.98125 20.1797 6.63281 20.625 7.33594 20.9859ZM1.90312 12.75H0.398438C0.464062 13.7437 0.651563 14.7047 0.946875 15.6141L2.34375 15.0563C2.11406 14.3203 1.95937 13.5469 1.90312 12.75ZM1.90312 11.25C1.96875 10.3687 2.14688 9.51562 2.42344 8.71406L1.04063 8.12344C0.689063 9.10781 0.46875 10.1578 0.398438 11.25H1.90312ZM3.01406 7.33594C3.37969 6.6375 3.82031 5.98594 4.33125 5.39062L3.26719 4.32656C2.625 5.05781 2.07187 5.86406 1.63125 6.74063L3.01406 7.33594ZM18.6094 19.6688C17.9578 20.2313 17.2312 20.7141 16.4484 21.0938L17.0062 22.4906C17.9766 22.0266 18.8719 21.4313 19.6734 20.7281L18.6094 19.6688ZM5.39062 4.33125C6.04219 3.76875 6.76875 3.28594 7.55156 2.90625L6.99375 1.50938C6.02344 1.97344 5.12813 2.56875 4.33125 3.27188L5.39062 4.33125ZM20.9859 16.6641C20.6203 17.3625 20.1797 18.0141 19.6688 18.6094L20.7328 19.6734C21.375 18.9422 21.9281 18.1313 22.3688 17.2594L20.9859 16.6641ZM22.0969 12.75C22.0312 13.6313 21.8531 14.4844 21.5766 15.2859L22.9594 15.8766C23.3109 14.8875 23.5312 13.8375 23.5969 12.7453H22.0969V12.75ZM15.0563 21.6562C14.3203 21.8906 13.5469 22.0406 12.75 22.0969V23.6016C13.7437 23.5359 14.7047 23.3484 15.6141 23.0531L15.0563 21.6562ZM11.25 22.0969C10.3687 22.0312 9.51562 21.8531 8.71406 21.5766L8.12344 22.9594C9.1125 23.3109 10.1625 23.5312 11.2547 23.5969V22.0969H11.25ZM21.6562 8.94375C21.8906 9.67969 22.0406 10.4531 22.0969 11.25H23.6016C23.5359 10.2563 23.3484 9.29531 23.0531 8.38594L21.6562 8.94375ZM4.33125 18.6094C3.76875 17.9578 3.28594 17.2312 2.90625 16.4484L1.50938 17.0062C1.97344 17.9766 2.56875 18.8719 3.27188 19.6734L4.33125 18.6094ZM12.75 1.90312C13.6313 1.96875 14.4797 2.14688 15.2859 2.42344L15.8766 1.04063C14.8922 0.689063 13.8422 0.46875 12.75 0.398438V1.90312ZM8.94375 2.34375C9.67969 2.10938 10.4531 1.95937 11.25 1.90312V0.398438C10.2563 0.464062 9.29531 0.651563 8.38594 0.946875L8.94375 2.34375ZM20.7328 4.32656L19.6688 5.39062C20.2313 6.04219 20.7141 6.76875 21.0984 7.55156L22.4953 6.99375C22.0312 6.02344 21.4359 5.12813 20.7328 4.32656ZM18.6094 4.33125L19.6734 3.26719C18.9422 2.625 18.1359 2.07187 17.2594 1.63125L16.6688 3.01406C17.3625 3.37969 18.0187 3.82031 18.6094 4.33125Z" fill="#3B82F6"/>
<path d="M12 18.375C12.7249 18.375 13.3125 17.7874 13.3125 17.0625C13.3125 16.3376 12.7249 15.75 12 15.75C11.2751 15.75 10.6875 16.3376 10.6875 17.0625C10.6875 17.7874 11.2751 18.375 12 18.375Z" fill="#3B82F6"/>
<path d="M12.3609 14.625H11.6109C11.3015 14.625 11.0484 14.3719 11.0484 14.0625C11.0484 10.7344 14.6765 11.0672 14.6765 9.00937C14.6765 8.07187 13.8422 7.125 11.9859 7.125C10.6219 7.125 9.90936 7.575 9.21092 8.47031C9.02811 8.70469 8.69061 8.75156 8.45154 8.58281L7.83748 8.15156C7.57498 7.96875 7.51404 7.59844 7.71561 7.34531C8.70936 6.07031 9.89061 5.25 11.9906 5.25C14.4422 5.25 16.5562 6.64687 16.5562 9.00937C16.5562 12.1781 12.9281 11.9859 12.9281 14.0625C12.9234 14.3719 12.6703 14.625 12.3609 14.625Z" fill="#3B82F6"/>
</g>
<defs>
<clipPath id="clip0_51_363">
<path d="M0 0H24V24H0V0Z" fill="white"/>
</clipPath>
</defs>
</svg>
