<svg width="14" height="16" viewBox="0 0 14 16" fill="none" xmlns="http://www.w3.org/2000/svg">
<g clip-path="url(#clip0_51_524)">
<path d="M7.00312 4.40586C5.01562 4.40586 3.41249 6.00898 3.41249 7.99648C3.41249 9.98398 5.01562 11.5871 7.00312 11.5871C8.99062 11.5871 10.5937 9.98398 10.5937 7.99648C10.5937 6.00898 8.99062 4.40586 7.00312 4.40586ZM7.00312 10.3309C5.71874 10.3309 4.66874 9.28398 4.66874 7.99648C4.66874 6.70898 5.71562 5.66211 7.00312 5.66211C8.29062 5.66211 9.33749 6.70898 9.33749 7.99648C9.33749 9.28398 8.28749 10.3309 7.00312 10.3309ZM11.5781 4.25898C11.5781 4.72461 11.2031 5.09648 10.7406 5.09648C10.275 5.09648 9.90312 4.72148 9.90312 4.25898C9.90312 3.79648 10.2781 3.42148 10.7406 3.42148C11.2031 3.42148 11.5781 3.79648 11.5781 4.25898ZM13.9562 5.10898C13.9031 3.98711 13.6469 2.99336 12.825 2.17461C12.0062 1.35586 11.0125 1.09961 9.89062 1.04336C8.73437 0.977734 5.26874 0.977734 4.11249 1.04336C2.99374 1.09648 1.99999 1.35273 1.17812 2.17148C0.356244 2.99023 0.103119 3.98398 0.0468689 5.10586C-0.0187561 6.26211 -0.0187561 9.72773 0.0468689 10.884C0.0999939 12.0059 0.356244 12.9996 1.17812 13.8184C1.99999 14.6371 2.99062 14.8934 4.11249 14.9496C5.26874 15.0152 8.73437 15.0152 9.89062 14.9496C11.0125 14.8965 12.0062 14.6402 12.825 13.8184C13.6437 12.9996 13.9 12.0059 13.9562 10.884C14.0219 9.72773 14.0219 6.26523 13.9562 5.10898ZM12.4625 12.1246C12.2187 12.7371 11.7469 13.209 11.1312 13.4559C10.2094 13.8215 8.02187 13.7371 7.00312 13.7371C5.98437 13.7371 3.79374 13.8184 2.87499 13.4559C2.26249 13.2121 1.79062 12.7402 1.54374 12.1246C1.17812 11.2027 1.26249 9.01523 1.26249 7.99648C1.26249 6.97773 1.18124 4.78711 1.54374 3.86836C1.78749 3.25586 2.25937 2.78398 2.87499 2.53711C3.79687 2.17148 5.98437 2.25586 7.00312 2.25586C8.02187 2.25586 10.2125 2.17461 11.1312 2.53711C11.7437 2.78086 12.2156 3.25273 12.4625 3.86836C12.8281 4.79023 12.7437 6.97773 12.7437 7.99648C12.7437 9.01523 12.8281 11.2059 12.4625 12.1246Z" fill="white"/>
</g>
<defs>
<clipPath id="clip0_51_524">
<path d="M0 0H14V16H0V0Z" fill="white"/>
</clipPath>
</defs>
</svg>
