<svg width="18" height="24" viewBox="0 0 18 24" fill="none" xmlns="http://www.w3.org/2000/svg">
<g clip-path="url(#clip0_51_379)">
<path d="M0.75 3C0.75 1.34531 2.09531 0 3.75 0H14.25C15.9047 0 17.25 1.34531 17.25 3V21C17.25 22.6547 15.9047 24 14.25 24H3.75C2.09531 24 0.75 22.6547 0.75 21V3ZM10.5 21C10.5 20.6022 10.342 20.2206 10.0607 19.9393C9.77936 19.658 9.39782 19.5 9 19.5C8.60218 19.5 8.22064 19.658 7.93934 19.9393C7.65804 20.2206 7.5 20.6022 7.5 21C7.5 21.3978 7.65804 21.7794 7.93934 22.0607C8.22064 22.342 8.60218 22.5 9 22.5C9.39782 22.5 9.77936 22.342 10.0607 22.0607C10.342 21.7794 10.5 21.3978 10.5 21ZM14.25 3H3.75V18H14.25V3Z" fill="#F59E0B"/>
</g>
<defs>
<clipPath id="clip0_51_379">
<path d="M0 0H18V24H0V0Z" fill="white"/>
</clipPath>
</defs>
</svg>
